<?xml version="1.0" encoding="utf-8"?>
<!-- Generator: Adobe Illustrator 26.3.1, SVG Export Plug-In . SVG Version: 6.00 Build 0)  -->
<svg version="1.1" id="图层_1" xmlns="http://www.w3.org/2000/svg" xmlns:xlink="http://www.w3.org/1999/xlink" x="0px" y="0px"
	 viewBox="0 0 228.7 39.1" style="enable-background:new 0 0 228.7 39.1;" xml:space="preserve">
<style type="text/css">
	.st0{fill:#FFFFFF;}
</style>
<g>
	<path class="st0" d="M9.3,29.9v-4.2c1.3,0.4,3.5,0.8,5.4,0.8c2.5,0,3.1-0.5,3.1-2c0-1.2-0.4-1.7-3.2-2.4c-4.2-1-5.3-2.2-5.3-5.7
		c0-4.3,2.8-5.9,7.4-5.9c2.3,0,3.9,0.3,5,0.7v3.9c-0.9-0.3-3.2-0.7-4.8-0.7c-2,0-2.8,0.4-2.8,1.7c0,1.1,0.4,1.4,3.1,2.1
		c4.8,1.2,5.5,2.7,5.5,6.2c0,3.8-2,6-7.7,6C12.7,30.6,10.6,30.2,9.3,29.9z"/>
	<path class="st0" d="M26.1,10.9h7.9l2.6,10.4h0.2l2.8-10.4h7.7v19.4h-4.8V15.6h-0.2l-3.3,11.3h-4.8L31,15.6h-0.2v14.7h-4.7V10.9z"
		/>
	<path class="st0" d="M63.5,25.8h-7.6l-1.5,4.5h-5.1l7.2-19.4h6.6l7.1,19.4H65L63.5,25.8z M62.2,21.8l-2.3-6.7h-0.3l-2.3,6.7H62.2z"
		/>
	<path class="st0" d="M83.1,15.1h-4.9v15.2h-4.8V15.1h-4.9v-4.3h14.6V15.1z"/>
	<path class="st0" d="M90.8,22.8l-7.1-12h5.7l3.8,7.4h0.2l4-7.4h5.5l-7.1,11.8v7.6h-4.9V22.8z"/>
	<path class="st0" d="M110.4,10.9h5.4l4.4,14.3h0.2l4.6-14.3h5.1l-6.9,19.4h-6L110.4,10.9z"/>
	<path class="st0" d="M132.4,10.9h4.9v19.4h-4.9V10.9z"/>
	<path class="st0" d="M140.8,20.6c0-8,3.2-10,9-10c5.7,0,9,2,9,10c0,8-3.2,10-9,10C144.1,30.6,140.8,28.6,140.8,20.6z M153.7,20.6
		c0-4.5-0.7-6-3.9-6c-3.1,0-3.8,1.5-3.8,6c0,4.5,0.7,6,3.8,6C152.9,26.5,153.7,25.1,153.7,20.6z"/>
	<path class="st0" d="M174.6,26.1v4.2h-12.3V10.9h4.9v15.2H174.6z"/>
	<path class="st0" d="M177.3,10.9h4.9v19.4h-4.9V10.9z"/>
	<path class="st0" d="M186.2,10.9h7.4l5.2,13.1h0.2V10.9h4.8v19.4h-6.7l-5.8-13.9H191v13.9h-4.8V10.9z"/>
	<path class="st0" d="M207.2,29.9v-4.2c1.3,0.4,3.5,0.8,5.4,0.8c2.5,0,3.1-0.5,3.1-2c0-1.2-0.4-1.7-3.2-2.4c-4.2-1-5.3-2.2-5.3-5.7
		c0-4.3,2.8-5.9,7.4-5.9c2.3,0,3.9,0.3,5,0.7v3.9c-0.9-0.3-3.2-0.7-4.8-0.7c-2,0-2.8,0.4-2.8,1.7c0,1.1,0.4,1.4,3.1,2.1
		c4.8,1.2,5.5,2.7,5.5,6.2c0,3.8-2,6-7.7,6C210.6,30.6,208.5,30.2,207.2,29.9z"/>
</g>
</svg>
